# xmcd CD database file
#
# Track frame offsets:
#	150
#	29387
#	52575
#	76615
#	103547
#	126942
#	159442
#
# Disc length: 2516 seconds
#
# Revision: 15
# Processed by: cddbd v1.5.2PL0 Copyright (c) Steve Scherf et al.
# Submitted via: CDex 1.70beta2
#
DISCID=4309d207
DTITLE=朱哲琴 - 央金瑪
DYEAR=1997
DGENRE=New Age
TTITLE0=央金瑪
TTITLE1=拉薩謠 
TTITLE2=信徒 
TTITLE3=七隻鼓
TTITLE4=喜瑪拉雅人
TTITLE5=彼岸之間 
TTITLE6=六世達賴喇嘛情歌
EXTD=YEAR: 1997
EXTT0=
EXTT1=
EXTT2=
EXTT3=
EXTT4=
EXTT5=
EXTT6=
PLAYORDER=
